<svg width="45" height="44" viewBox="0 0 45 44" fill="none" xmlns="http://www.w3.org/2000/svg">
    <path
        d="M0.5 22C0.5 9.84974 10.3497 0 22.5 0C34.6503 0 44.5 9.84974 44.5 22C44.5 34.1503 34.6503 44 22.5 44C10.3497 44 0.5 34.1503 0.5 22Z"
        fill="#101828" />
    <path
        d="M20.8327 17.0001H24.8327C25.7661 17.0001 26.2328 17.0001 26.5893 17.1817C26.9029 17.3415 27.1579 17.5965 27.3177 17.9101C27.4993 18.2666 27.4993 18.7333 27.4993 19.6667V23.6667M14.166 17.0001H17.4993M27.4993 27.0001V30.3334M30.8327 27.0001L20.166 27.0001C19.2326 27.0001 18.7659 27.0001 18.4094 26.8184C18.0958 26.6586 17.8408 26.4037 17.681 26.0901C17.4993 25.7335 17.4993 25.2668 17.4993 24.3334V13.6667"
        stroke="white" stroke-width="2" stroke-linecap="round" stroke-linejoin="round" />
</svg>