<svg width="24" height="24" viewBox="0 0 24 24" fill="none" xmlns="http://www.w3.org/2000/svg">
<g clip-path="url(#clip0_9604_81467)">
<rect x="10.6172" y="24.6692" width="5.89964" height="2.76677" transform="rotate(-90 10.6172 24.6692)" fill="#126060"/>
<rect x="3.10938" y="17.8787" width="14.2198" height="15.1085" transform="rotate(-90 3.10938 17.8787)" fill="#00EAD9"/>
<path d="M4 18.7695C2.9 18.7695 2 17.8695 2 16.7695L2 4.76953C2 4.2391 2.21071 3.73039 2.58579 3.35532C2.96086 2.98025 3.46957 2.76953 4 2.76953L20 2.76953C20.5304 2.76953 21.0391 2.98024 21.4142 3.35532C21.7893 3.73039 22 4.2391 22 4.76953L22 16.7695C22 17.3 21.7893 17.8087 21.4142 18.1837C21.0391 18.5588 20.5304 18.7695 20 18.7695L4 18.7695ZM4 16.7695L18 16.7695L18 4.76953L4 4.76953L4 16.7695ZM21 10.7695C21 10.5043 20.8946 10.25 20.7071 10.0624C20.5196 9.87489 20.2652 9.76953 20 9.76953C19.7348 9.76953 19.4804 9.87489 19.2929 10.0624C19.1054 10.25 19 10.5043 19 10.7695C19 11.0347 19.1054 11.2891 19.2929 11.4766C19.4804 11.6642 19.7348 11.7695 20 11.7695C20.2652 11.7695 20.5196 11.6642 20.7071 11.4766C20.8946 11.2891 21 11.0347 21 10.7695Z" fill="#126060"/>
</g>
<defs>
<clipPath id="clip0_9604_81467">
<rect width="24" height="24" fill="white"/>
</clipPath>
</defs>
</svg>
