<svg width="24" height="24" viewBox="0 0 24 24" fill="none" xmlns="http://www.w3.org/2000/svg">
<rect x="4.13281" y="10.8936" width="6.83594" height="7.31653" fill="#00EAD9"/>
<path fill-rule="evenodd" clip-rule="evenodd" d="M18.9386 1.6988C18.9386 1.35781 18.8031 1.03078 18.562 0.789663C18.3209 0.548545 17.9939 0.413086 17.6529 0.413086C17.3119 0.413086 16.9848 0.548545 16.7437 0.789663C16.5026 1.03078 16.3671 1.35781 16.3671 1.6988V3.21423C16.3671 3.32789 16.322 3.4369 16.2416 3.51727C16.1612 3.59765 16.0522 3.6428 15.9386 3.6428H13.7151C12.9195 3.6428 12.1564 3.95887 11.5938 4.52148C11.0312 5.08409 10.7151 5.84715 10.7151 6.6428V8.15823H7.17515C5.90933 8.15809 4.68793 8.62479 3.74474 9.46899C2.80154 10.3132 2.20281 11.4756 2.06315 12.7337L1.34486 19.1982C1.24158 20.1206 1.46629 21.05 1.97961 21.8233C2.49293 22.5966 3.26208 23.1645 4.15222 23.4275C5.04235 23.6904 5.99665 23.6317 6.84779 23.2615C7.69893 22.8913 8.39259 22.2332 8.80715 21.4028L9.42943 20.1582H14.5723L15.1946 21.4028C15.6091 22.2332 16.3028 22.8913 17.1539 23.2615C18.0051 23.6317 18.9594 23.6904 19.8495 23.4275C20.7396 23.1645 21.5088 22.5966 22.0221 21.8233C22.5354 21.05 22.7601 20.1206 22.6569 19.1982L21.9369 12.7337C21.7976 11.4756 21.1993 10.313 20.2564 9.46848C19.3136 8.62398 18.0924 8.15685 16.8266 8.15651H13.2866V6.6428C13.2866 6.52914 13.3317 6.42013 13.4121 6.33975C13.4925 6.25938 13.6015 6.21423 13.7151 6.21423H15.9386C16.7342 6.21423 17.4973 5.89816 18.0599 5.33555C18.6225 4.77294 18.9386 4.00988 18.9386 3.21423V1.6988ZM7.50086 11.3725C8.09229 11.3725 8.57229 11.8525 8.57229 12.4439V13.3714H9.50143C9.78559 13.3714 10.0581 13.4843 10.259 13.6852C10.46 13.8861 10.5729 14.1586 10.5729 14.4428C10.5729 14.727 10.46 14.9995 10.259 15.2004C10.0581 15.4013 9.78559 15.5142 9.50143 15.5142H8.57229V16.4417C8.57229 16.7258 8.45941 16.9983 8.25848 17.1993C8.05754 17.4002 7.78502 17.5131 7.50086 17.5131C7.2167 17.5131 6.94418 17.4002 6.74325 17.1993C6.54232 16.9983 6.42943 16.7258 6.42943 16.4417V15.5142H5.50029C5.21613 15.5142 4.94361 15.4013 4.74268 15.2004C4.54174 14.9995 4.42886 14.727 4.42886 14.4428C4.42886 14.1586 4.54174 13.8861 4.74268 13.6852C4.94361 13.4843 5.21613 13.3714 5.50029 13.3714H6.42943V12.4422C6.42943 11.8508 6.90943 11.3725 7.50086 11.3725ZM15.8837 16.5857C16.1679 16.5857 16.4404 16.4728 16.6413 16.2718C16.8423 16.0709 16.9551 15.7984 16.9551 15.5142C16.9551 15.2301 16.8423 14.9575 16.6413 14.7566C16.4404 14.5557 16.1679 14.4428 15.8837 14.4428C15.5996 14.4428 15.327 14.5557 15.1261 14.7566C14.9252 14.9575 14.8123 15.2301 14.8123 15.5142C14.8123 15.7984 14.9252 16.0709 15.1261 16.2718C15.327 16.4728 15.5996 16.5857 15.8837 16.5857ZM19.1014 12.8571C19.1014 13.1412 18.9886 13.4138 18.7876 13.6147C18.5867 13.8156 18.3142 13.9285 18.03 13.9285C17.7458 13.9285 17.4733 13.8156 17.2724 13.6147C17.0715 13.4138 16.9586 13.1412 16.9586 12.8571C16.9586 12.5729 17.0715 12.3004 17.2724 12.0995C17.4733 11.8985 17.7458 11.7857 18.03 11.7857C18.3142 11.7857 18.5867 11.8985 18.7876 12.0995C18.9886 12.3004 19.1014 12.5729 19.1014 12.8571Z" fill="#126060"/>
</svg>
