<svg width="24" height="24" viewBox="0 0 24 24" fill="none" xmlns="http://www.w3.org/2000/svg">
<g clip-path="url(#clip0_9398_123466)">
<path d="M8.2627 10.0422H8.25544C7.68263 10.0422 7.13886 10.296 6.76182 10.7311C6.38478 11.1661 6.22525 11.7244 6.31226 12.3045C6.45002 13.2181 7.29836 13.9431 8.23371 13.9504C8.676 13.9431 9.11103 13.7401 9.45182 13.3921L10.815 11.9999L9.4446 10.6078C9.09656 10.2525 8.66874 10.0495 8.2627 10.0422Z" fill="#126060"/>
<path d="M15.7386 10.0422H15.7241C15.3253 10.0495 14.8975 10.2525 14.5423 10.6078L13.1719 11.9999L14.535 13.3921C14.883 13.7401 15.3109 13.9431 15.7169 13.9504C16.6957 13.9431 17.5368 13.2181 17.6746 12.3045C17.7616 11.7244 17.6021 11.1661 17.2323 10.7311C16.8553 10.296 16.3114 10.0422 15.7386 10.0422Z" fill="#126060"/>
<path fill-rule="evenodd" clip-rule="evenodd" d="M24 12C24 18.6127 18.6127 24 12 24C5.38006 24 0 18.6127 0 12C0 5.38006 5.38006 0 12 0C18.6127 0 24 5.38006 24 12ZM18.5039 9.629C17.8151 8.82417 16.8073 8.36012 15.7414 8.36012C15.7414 8.36012 15.7269 8.36012 15.7197 8.36012C14.8641 8.36737 14.023 8.74441 13.3486 9.42598L12 10.8036L10.6441 9.42598C9.97706 8.74441 9.13596 8.36737 8.27312 8.36012H8.2586C7.19274 8.36012 6.18491 8.82417 5.48884 9.629C4.80001 10.4338 4.49548 11.4997 4.655 12.5583C4.91603 14.2985 6.45317 15.6181 8.30211 15.6326C9.1577 15.6181 9.99154 15.2411 10.6586 14.5668L12 13.2036L13.3414 14.5668C14.0085 15.2411 14.8423 15.6181 15.7704 15.6326C17.5468 15.6181 19.0768 14.2912 19.3378 12.5583C19.4973 11.4997 19.1928 10.4338 18.5039 9.629Z" fill="#126060"/>
</g>
<defs>
<clipPath id="clip0_9398_123466">
<rect width="24" height="24" fill="white"/>
</clipPath>
</defs>
</svg>
