<svg width="26" height="25" viewBox="0 0 26 25" fill="none" xmlns="http://www.w3.org/2000/svg">
<g clip-path="url(#clip0_9597_81456)">
<path d="M2.51562 20H4.96263C5.88163 20 6.50612 20.327 6.50612 21.232C6.50612 21.706 6.27063 22.054 5.85213 22.257C6.44113 22.425 6.74162 22.936 6.74162 23.5405C6.74162 24.524 5.90512 25 5.02712 25H2.51562V20ZM3.51562 22H4.82713C5.19813 22 5.47463 21.8965 5.47463 21.4895C5.47463 21.0275 5.12113 21 4.74463 21H3.51562V22ZM3.51562 24H4.88613C5.31013 24 5.67562 23.7805 5.67562 23.2765C5.67562 22.7825 5.36313 22.5 4.90963 22.5H3.51562V24ZM7.51562 21.5H8.51562V22H8.52662C8.70362 21.5 9.25612 21.276 9.72762 21.276C9.79262 21.276 10.0156 21.3145 10.0156 21.335V22.231C9.51562 22.21 9.68413 22.1985 9.57213 22.1985C8.86513 22.1985 8.51562 22.7055 8.51562 23.324V25H7.51562V21.5ZM10.4301 22.5C10.4831 21.5 11.2426 21.312 12.0261 21.312C12.7271 21.312 13.5156 21.456 13.5156 22.2985V24.125C13.5156 24.443 13.6521 25 13.7411 25H12.7691C12.7336 25 12.7041 24.729 12.6981 24.614C12.3916 24.9325 11.9441 25.0235 11.5201 25.0235C10.8541 25.0235 10.3241 24.679 10.3241 23.96C10.3241 23.164 10.9186 22.976 11.5201 22.8875C12.1096 22.805 12.6571 22.817 12.6571 22.4245C12.6571 22.0095 12.3746 21.958 12.0326 21.958C11.6676 21.958 11.4316 21.9995 11.3966 22.4995L10.4301 22.5ZM12.5156 23.1885C12.5156 23.3295 12.0861 23.3355 11.7851 23.391C11.4846 23.453 11.2486 23.553 11.2486 23.907C11.2486 24.266 11.4786 24.3545 11.7906 24.3545C12.5446 24.3545 12.5151 23.757 12.5151 23.5475L12.5156 23.1885ZM15.5976 20.852H14.6306V20.0595H15.5976V20.852ZM14.5156 21.5H15.5156V25H14.5156V21.5ZM16.5156 20H17.5156V25H16.5156V20ZM18.5156 20H19.5156V25H18.5156V20ZM21.3651 23.5C21.3951 24 21.6886 24.42 22.2256 24.42C22.6146 24.42 22.9266 24 22.9856 24H23.8336C23.5631 24.5 22.9856 25.091 22.1961 25.091C21.0891 25.091 20.4051 24.286 20.4051 23.198C20.4051 22.147 21.1301 21.38 22.1961 21.38C23.3866 21.38 23.9641 22.5 23.8986 23.5H21.3651ZM22.9326 23C22.8441 22.5 22.6381 22.255 22.1666 22.255C21.5536 22.255 21.3771 22.5 21.3651 23H22.9326Z" fill="#126060"/>
<path d="M7.76562 18C8.73212 18 9.51562 17.2165 9.51562 16.25C9.51562 15.2835 8.73212 14.5 7.76562 14.5C6.79913 14.5 6.01562 15.2835 6.01562 16.25C6.01562 17.2165 6.79913 18 7.76562 18Z" fill="#126060"/>
<path d="M7.76562 11C8.73212 11 9.51562 10.2165 9.51562 9.25C9.51562 8.2835 8.73212 7.5 7.76562 7.5C6.79913 7.5 6.01562 8.2835 6.01562 9.25C6.01562 10.2165 6.79913 11 7.76562 11Z" fill="#126060"/>
<path d="M7.76562 4C8.73212 4 9.51562 3.2165 9.51562 2.25C9.51562 1.2835 8.73212 0.5 7.76562 0.5C6.79913 0.5 6.01562 1.2835 6.01562 2.25C6.01562 3.2165 6.79913 4 7.76562 4Z" fill="#126060"/>
<path d="M18.2656 18C19.2321 18 20.0156 17.2165 20.0156 16.25C20.0156 15.2835 19.2321 14.5 18.2656 14.5C17.2991 14.5 16.5156 15.2835 16.5156 16.25C16.5156 17.2165 17.2991 18 18.2656 18Z" fill="#126060"/>
<path d="M18.2656 11C19.2321 11 20.0156 10.2165 20.0156 9.25C20.0156 8.2835 19.2321 7.5 18.2656 7.5C17.2991 7.5 16.5156 8.2835 16.5156 9.25C16.5156 10.2165 17.2991 11 18.2656 11Z" fill="#126060"/>
<path d="M18.2656 4C19.2321 4 20.0156 3.2165 20.0156 2.25C20.0156 1.2835 19.2321 0.5 18.2656 0.5C17.2991 0.5 16.5156 1.2835 16.5156 2.25C16.5156 3.2165 17.2991 4 18.2656 4Z" fill="#126060"/>
</g>
<defs>
<clipPath id="clip0_9597_81456">
<rect width="25" height="25" fill="white" transform="translate(0.515625)"/>
</clipPath>
</defs>
</svg>
