<svg width="24" height="24" viewBox="0 0 24 24" fill="none" xmlns="http://www.w3.org/2000/svg">
<path d="M4.5 3C4.10775 3 3.70575 3.138 3.4215 3.42225C3.138 3.705 3 4.107 3 4.5V12.75C3 14.8425 4.239 16.5877 6 17.6955V21H17.25V17.6955C19.011 16.5877 20.25 14.8418 20.25 12.75V12H10.5V4.5C10.5 4.10775 10.362 3.70575 10.0778 3.4215C9.795 3.138 9.393 3 9 3H4.5ZM4.5 4.5H9V12H4.5V4.5ZM6 6V8.25H7.5V6H6ZM4.734 13.5H18.5153C18.249 14.7952 17.49 15.9375 16.1483 16.6642L15.75 16.875V19.5H7.5V16.875L7.10175 16.6642C5.75925 15.9375 5.001 14.7952 4.73475 13.5H4.734Z" fill="#126060"/>
<path d="M17.6074 10.543C16.6699 10.543 15.8496 10.3613 15.1465 9.99805C14.4551 9.62305 13.9219 9.0957 13.5469 8.41602C13.1719 7.73633 12.9844 6.93359 12.9844 6.00781C12.9844 5.31641 13.0898 4.69531 13.3008 4.14453C13.5117 3.59375 13.8164 3.125 14.2148 2.73828C14.625 2.35156 15.1172 2.05859 15.6914 1.85938C16.2656 1.64844 16.9043 1.54297 17.6074 1.54297C17.9707 1.54297 18.3574 1.58984 18.7676 1.68359C19.1777 1.76563 19.582 1.91211 19.9805 2.12305C20.2148 2.22852 20.373 2.38086 20.4551 2.58008C20.5488 2.76758 20.584 2.9668 20.5605 3.17773C20.5371 3.37695 20.4609 3.55859 20.332 3.72266C20.2148 3.875 20.0625 3.98047 19.875 4.03906C19.6875 4.08594 19.4766 4.05078 19.2422 3.93359C19.0195 3.80469 18.7852 3.71094 18.5391 3.65234C18.3047 3.59375 18.082 3.56445 17.8711 3.56445C17.5195 3.56445 17.209 3.62305 16.9395 3.74023C16.6699 3.8457 16.4414 4.00391 16.2539 4.21484C16.0781 4.41406 15.9375 4.66602 15.832 4.9707C15.7383 5.27539 15.6914 5.62695 15.6914 6.02539C15.6914 6.79883 15.8789 7.4082 16.2539 7.85352C16.6406 8.28711 17.1797 8.50391 17.8711 8.50391C18.082 8.50391 18.3047 8.48047 18.5391 8.43359C18.7734 8.375 19.0078 8.28125 19.2422 8.15234C19.4766 8.03516 19.6875 8.00586 19.875 8.06445C20.0625 8.12305 20.209 8.23437 20.3145 8.39844C20.4316 8.55078 20.4961 8.73242 20.5078 8.94336C20.5312 9.14258 20.4961 9.3418 20.4023 9.54102C20.3203 9.72852 20.168 9.875 19.9453 9.98047C19.5469 10.1797 19.1484 10.3203 18.75 10.4023C18.3516 10.4961 17.9707 10.543 17.6074 10.543Z" fill="#00EAD9"/>
</svg>
