<svg width="24" height="24" viewBox="0 0 24 24" fill="none" xmlns="http://www.w3.org/2000/svg">
<g clip-path="url(#clip0_9398_123380)">
<path d="M20.7796 9.89917C20.4851 10.4308 20.1007 10.9461 19.7081 11.4778C18.8984 12.5575 18.0641 13.678 17.8923 15.1503C17.5733 17.9313 16.5182 20.884 14.5143 20.884C12.5267 20.884 11.6351 19.2645 11.6187 17.6614C11.6187 17.2279 11.2752 16.8434 10.8417 16.8353C10.3837 16.8271 10.0156 17.2033 10.0156 17.645C10.0156 20.0661 11.5615 22.5035 14.5143 22.5035C17.0989 22.5035 18.9638 19.8207 19.4873 15.3384C19.61 14.2997 20.2888 13.3917 20.9923 12.4429C21.4503 11.8377 21.9411 11.1833 22.3092 10.4472C22.2683 10.4554 22.2355 10.4554 22.1947 10.4554C21.6466 10.4554 21.1477 10.2509 20.7796 9.89917Z" fill="#126060"/>
<path d="M12.9967 14.9458C12.5959 16.4181 14.3217 17.2115 15.4259 16.4508C16.1048 15.9927 16.0557 14.6922 15.7531 13.4163C15.2133 14.3323 14.2236 14.9458 13.0948 14.9458C13.0621 14.9458 13.0294 14.9458 12.9967 14.9458Z" fill="#126060"/>
<path d="M15.874 5.77685C16.9945 5.77685 18.1397 6.30033 18.1397 7.47816C18.1397 7.92802 18.4995 8.27973 18.9412 8.27973C19.3829 8.27973 19.751 7.92802 19.751 7.47816C19.751 5.55601 18.1151 4.16553 15.874 4.16553C14.7289 4.16553 13.5429 4.72172 12.6922 5.66234C11.9397 6.48845 11.5798 7.47816 11.6698 8.4515C11.6916 8.66417 11.7407 8.87137 11.8171 9.07313C12.2097 8.89318 12.635 8.79503 13.093 8.79503C13.2184 8.79503 13.3411 8.80321 13.4611 8.81957C13.3629 8.63145 13.2975 8.44332 13.273 8.29609C13.2239 7.78897 13.4529 7.2246 13.8864 6.74202C14.4262 6.14493 15.1869 5.77685 15.874 5.77685Z" fill="#126060"/>
<path d="M15.7923 1.00012C11.8171 1.00012 8.57812 4.30458 8.57812 8.36971C8.57812 8.38062 8.57812 8.39152 8.57812 8.40242L8.69263 10.6763C8.70899 11.0035 8.92166 11.2897 9.23247 11.3961L11.2936 12.0995C11.4082 12.9992 12.1688 13.6945 13.0931 13.6945C14.0992 13.6945 14.9171 12.8765 14.9171 11.8705C14.9171 10.8644 14.0992 10.0465 13.0931 10.0465C12.5942 10.0465 12.1361 10.251 11.809 10.5863L10.2631 10.0547L10.1813 8.34517C10.1895 5.17977 12.7005 2.60328 15.7923 2.60328C18.8759 2.60328 21.3951 5.18795 21.3951 8.36971C21.3951 8.8114 21.755 9.17128 22.1967 9.17128C22.6384 9.17128 22.9983 8.8114 22.9983 8.36971C22.9983 4.30458 19.7674 1.00012 15.7923 1.00012Z" fill="#00EAD9"/>
<path d="M3.45591 11.3714C3.45591 9.97277 4.02028 8.62318 4.99363 7.65802C5.2799 7.37992 5.28809 6.92188 5.00181 6.6356C5.00181 6.63015 5.00181 6.62742 5.00181 6.62742C4.71554 6.34933 4.25749 6.34115 3.9794 6.62742C2.71978 7.8625 2 9.58834 2 11.3714C2 13.1627 2.69524 14.8477 3.96304 16.1155C4.24932 16.4017 4.70735 16.4017 4.99363 16.1155C5.2799 15.8292 5.2799 15.3711 4.99363 15.0849C4.00393 14.0952 3.45591 12.7701 3.45591 11.3714Z" fill="#126060"/>
<path d="M6.95732 8.59056C6.67104 8.30429 6.21299 8.30429 5.92671 8.59056C5.18239 9.33488 4.77344 10.3164 4.77344 11.3634C4.77344 12.4185 5.18239 13.4 5.92671 14.1443C6.21299 14.4306 6.67104 14.4306 6.95732 14.1443C7.24359 13.8662 7.24359 13.4 6.95732 13.1137C6.49109 12.6475 6.22934 12.0259 6.22934 11.3634C6.22934 10.709 6.49109 10.0874 6.95732 9.62116C7.24359 9.33488 7.24359 8.86866 6.95732 8.59056Z" fill="#126060"/>
</g>
<defs>
<clipPath id="clip0_9398_123380">
<rect width="21" height="21.5036" fill="white" transform="translate(2 1)"/>
</clipPath>
</defs>
</svg>
