<svg width="24" height="24" viewBox="0 0 24 24" fill="none" xmlns="http://www.w3.org/2000/svg">
<path d="M11.9967 6C5.13951 6 1.71094 12 1.71094 12C1.71094 12 5.13951 18 11.9967 18C18.8538 18 22.2824 12 22.2824 12C22.2824 12 18.8538 6 11.9967 6Z" fill="#126060"/>
<path d="M12.0032 17.0656C14.8009 17.0656 17.0689 14.7976 17.0689 11.9999C17.0689 9.2022 14.8009 6.9342 12.0032 6.9342C9.2055 6.9342 6.9375 9.2022 6.9375 11.9999C6.9375 14.7976 9.2055 17.0656 12.0032 17.0656Z" fill="white"/>
<path d="M12.0011 14.5714C13.4213 14.5714 14.5725 13.4202 14.5725 12C14.5725 10.5799 13.4213 9.42859 12.0011 9.42859C10.581 9.42859 9.42969 10.5799 9.42969 12C9.42969 13.4202 10.581 14.5714 12.0011 14.5714Z" fill="#00EAD9"/>
<path d="M3 23C2.45 23 1.97933 22.8043 1.588 22.413C1.19667 22.0217 1.00067 21.5507 1 21V19C1 18.7167 1.096 18.4793 1.288 18.288C1.48 18.0967 1.71733 18.0007 2 18C2.28267 17.9993 2.52033 18.0953 2.713 18.288C2.90567 18.4807 3.00133 18.718 3 19V21H5C5.28333 21 5.521 21.096 5.713 21.288C5.905 21.48 6.00067 21.7173 6 22C5.99933 22.2827 5.90333 22.5203 5.712 22.713C5.52067 22.9057 5.28333 23.0013 5 23H3ZM21 23H19C18.7167 23 18.4793 22.904 18.288 22.712C18.0967 22.52 18.0007 22.2827 18 22C17.9993 21.7173 18.0953 21.48 18.288 21.288C18.4807 21.096 18.718 21 19 21H21V19C21 18.7167 21.096 18.4793 21.288 18.288C21.48 18.0967 21.7173 18.0007 22 18C22.2827 17.9993 22.5203 18.0953 22.713 18.288C22.9057 18.4807 23.0013 18.718 23 19V21C23 21.55 22.8043 22.021 22.413 22.413C22.0217 22.805 21.5507 23.0007 21 23ZM23 3V5C23 5.28333 22.904 5.521 22.712 5.713C22.52 5.905 22.2827 6.00067 22 6C21.7173 5.99933 21.48 5.90333 21.288 5.712C21.096 5.52067 21 5.28333 21 5V3H19C18.7167 3 18.4793 2.904 18.288 2.712C18.0967 2.52 18.0007 2.28267 18 2C17.9993 1.71733 18.0953 1.48 18.288 1.288C18.4807 1.096 18.718 1 19 1H21C21.55 1 22.021 1.196 22.413 1.588C22.805 1.98 23.0007 2.45067 23 3ZM3 1H5C5.28333 1 5.521 1.096 5.713 1.288C5.905 1.48 6.00067 1.71733 6 2C5.99933 2.28267 5.90333 2.52033 5.712 2.713C5.52067 2.90567 5.28333 3.00133 5 3H3V5C3 5.28333 2.904 5.521 2.712 5.713C2.52 5.905 2.28267 6.00067 2 6C1.71733 5.99933 1.48 5.90333 1.288 5.712C1.096 5.52067 1 5.28333 1 5V3C1 2.45 1.196 1.97933 1.588 1.588C1.98 1.19667 2.45067 1.00067 3 1Z" fill="#126060"/>
</svg>
