<svg width="24" height="24" viewBox="0 0 24 24" fill="none" xmlns="http://www.w3.org/2000/svg">
<path d="M3.37439 2.73413C3.26325 2.84531 3.20081 2.99609 3.20081 3.1533C3.20081 3.31051 3.26325 3.46128 3.37439 3.57246L9.51172 9.72315L10.4258 9.71761L12.7377 12.2522H18.2681C18.4777 11.5657 19.0717 10.3579 19.142 9.64352C19.3384 9.6534 19.5582 9.65834 19.8012 9.65834C20.4913 9.65834 21.5562 9.6121 21.8763 9.37851C22.4692 8.59294 22.7656 7.0236 22.7656 7.0236C22.7656 7.0236 21.1133 6.45977 20.3941 6.20484C20.3941 4.2934 17.923 3.20251 16.6673 4.81335C16.3554 4.81157 15.9997 4.91177 15.6665 5.11631C15.0642 5.48627 14.8365 7.15344 14.9669 7.90817C14.0154 9.02871 12.7982 9.48878 11.2045 9.65834L11.1435 9.66487L4.21272 2.73413C4.10154 2.62299 3.95077 2.56055 3.79356 2.56055C3.63635 2.56055 3.48557 2.62299 3.37439 2.73413ZM10.4258 9.71761L12.7377 12.2522V16.5915C11.118 16.3751 9.38617 16.017 7.64726 15.0108C6.37969 17.3343 5.31784 18.0019 4.77299 18.3452C4.55363 18.4833 4.41726 18.5687 4.38643 18.6885C4.31529 18.9612 4.24059 19.161 4.18248 19.3169C4.10897 19.512 4.06154 19.6388 4.07932 19.7539H4.38643C4.54367 19.7539 4.69448 19.8163 4.80566 19.9275C4.91685 20.0387 4.97931 20.1895 4.97931 20.3467C4.97931 20.504 4.91685 20.6548 4.80566 20.766C4.69448 20.8771 4.54367 20.9396 4.38643 20.9396H3.20068C3.04344 20.9396 2.89264 20.8771 2.78145 20.766C2.67027 20.6548 2.6078 20.504 2.6078 20.3467V17.6652C2.6078 16.493 4.38643 13.3674 4.38643 13.3674L1.71849 16.7895C1.47837 16.9395 1.15407 16.6513 1.42205 16.1966C1.5341 15.8978 1.65624 15.5065 1.79497 15.063C2.45543 12.9482 3.48289 9.65834 5.50164 9.65834C5.79392 9.65834 6.21428 9.67376 6.70873 9.69095C7.53106 9.7206 9.43864 9.73065 10.4258 9.71761ZM13.6175 16.713L12.7377 16.5915V12.2522H18.2681C17.7896 13.2915 17.2169 14.7274 16.7728 15.3108C16.6902 15.4187 16.6127 15.5215 16.5404 15.6191C16.2564 16.0021 15.4288 18.4679 16.662 19.7539H16.8369C16.9941 19.7539 17.1449 19.8163 17.2561 19.9275C17.3673 20.0387 17.4297 20.1895 17.4297 20.3467C17.4297 20.504 17.3673 20.6548 17.2561 20.766C17.1449 20.8771 16.9941 20.9396 16.8369 20.9396H15.0582C14.9281 20.9396 14.8016 20.8969 14.6982 20.8179C14.5949 20.7389 14.5203 20.6282 14.4861 20.5027C14.4829 20.5027 14.479 20.5021 14.4766 20.5009C14.4517 20.4878 14.4535 20.4202 14.4588 20.2685C14.463 20.1511 14.4652 20.0337 14.4653 19.9163V16.8043L13.9122 16.745L13.908 16.7444L13.6175 16.713Z" fill="#126060"/>
</svg>
