<svg width="24" height="24" viewBox="0 0 24 24" fill="none" xmlns="http://www.w3.org/2000/svg">
<path d="M20.7796 9.89917C20.4851 10.4308 20.1007 10.9461 19.7081 11.4778C18.8984 12.5575 18.0641 13.678 17.8923 15.1503C17.5733 17.9313 16.5182 20.884 14.5143 20.884C12.5267 20.884 11.6351 19.2645 11.6187 17.6614C11.6187 17.2279 11.2752 16.8434 10.8417 16.8353C10.3837 16.8271 10.0156 17.2033 10.0156 17.645C10.0156 20.0661 11.5615 22.5035 14.5143 22.5035C17.0989 22.5035 18.9638 19.8207 19.4873 15.3384C19.61 14.2997 20.2888 13.3917 20.9923 12.4429C21.4503 11.8377 21.9411 11.1833 22.3092 10.4472C22.2683 10.4554 22.2355 10.4554 22.1947 10.4554C21.6466 10.4554 21.1477 10.2509 20.7796 9.89917Z" fill="#126060"/>
<path d="M12.9967 14.9458C12.5959 16.4181 14.3217 17.2115 15.4259 16.4508C16.1048 15.9927 16.0557 14.6922 15.7531 13.4163C15.2133 14.3323 14.2236 14.9458 13.0948 14.9458C13.0621 14.9458 13.0294 14.9458 12.9967 14.9458Z" fill="#126060"/>
<path d="M15.874 5.77685C16.9945 5.77685 18.1397 6.30033 18.1397 7.47816C18.1397 7.92802 18.4995 8.27973 18.9412 8.27973C19.3829 8.27973 19.751 7.92802 19.751 7.47816C19.751 5.55601 18.1151 4.16553 15.874 4.16553C14.7289 4.16553 13.5429 4.72172 12.6922 5.66234C11.9397 6.48845 11.5798 7.47816 11.6698 8.4515C11.6916 8.66417 11.7407 8.87137 11.8171 9.07313C12.2097 8.89318 12.635 8.79503 13.093 8.79503C13.2184 8.79503 13.3411 8.80321 13.4611 8.81957C13.3629 8.63145 13.2975 8.44332 13.273 8.29609C13.2239 7.78897 13.4529 7.2246 13.8864 6.74202C14.4262 6.14493 15.1869 5.77685 15.874 5.77685Z" fill="#126060"/>
<path d="M8.58594 12.2013C8.58594 11.649 8.13822 11.2013 7.58594 11.2013H6.58594C6.03365 11.2013 5.58594 10.7536 5.58594 10.2013V9.20129C5.58594 8.64901 5.13822 8.20129 4.58594 8.20129C4.03365 8.20129 3.58594 8.64901 3.58594 9.20129V10.2013C3.58594 10.7536 3.13822 11.2013 2.58594 11.2013H1.58594C1.03365 11.2013 0.585938 11.649 0.585938 12.2013C0.585938 12.7536 1.03365 13.2013 1.58594 13.2013H2.58594C3.13822 13.2013 3.58594 13.649 3.58594 14.2013V15.2013C3.58594 15.7536 4.03365 16.2013 4.58594 16.2013C5.13822 16.2013 5.58594 15.7536 5.58594 15.2013V14.2013C5.58594 13.649 6.03365 13.2013 6.58594 13.2013H7.58594C8.13822 13.2013 8.58594 12.7536 8.58594 12.2013Z" fill="#00EAD9"/>
<path d="M9.26948 8.95965C9.72108 8.95965 10.0945 8.59509 10.0945 8.14373C10.0945 4.99288 12.6565 2.4236 15.8091 2.4236C19.2395 2.4236 21.3586 4.5068 21.3586 7.83993C21.3586 9.18533 20.5683 10.2443 19.7345 11.364C18.9095 12.4664 18.0584 13.6121 17.8847 15.1051C17.8326 15.4697 17.7805 15.8429 17.711 16.2075L19.144 17.3793C19.3003 16.7283 19.4219 16.0339 19.5087 15.2874C19.639 14.2371 20.3251 13.317 21.0459 12.3449C21.9665 11.121 23 9.73217 23 7.83993C23 3.62144 20.108 0.791748 15.8091 0.791748C11.7533 0.791748 8.45312 4.09016 8.45312 8.14373C8.45312 8.59509 8.81787 8.95965 9.26948 8.95965Z" fill="#126060"/>
</svg>
