<svg width="24" height="24" viewBox="0 0 24 24" fill="none" xmlns="http://www.w3.org/2000/svg">
<path fill-rule="evenodd" clip-rule="evenodd" d="M12 2C12.62 2.017 13.268 2.543 13.693 2.947C14.2879 3.50468 14.7044 4.22599 14.89 5.02C15.5832 4.5896 16.3885 4.37421 17.204 4.401C17.79 4.416 18.62 4.503 19.07 4.929C19.496 5.379 19.582 6.209 19.597 6.795C19.6241 7.61044 19.409 8.41564 18.979 9.109C19.906 9.323 20.589 9.819 21.052 10.307C21.456 10.732 21.982 11.38 21.999 12C21.982 12.62 21.456 13.268 21.052 13.693C20.4944 14.2883 19.7731 14.7051 18.979 14.891C19.4088 15.5845 19.6242 16.3895 19.598 17.205C19.583 17.791 19.496 18.621 19.07 19.071C18.62 19.497 17.79 19.583 17.204 19.598C16.3886 19.6251 15.5834 19.41 14.89 18.98C14.7041 19.7741 14.2873 20.4954 13.692 21.053C13.267 21.457 12.618 21.983 11.999 22C11.379 21.983 10.731 21.457 10.306 21.053C9.71147 20.4952 9.29533 19.7739 9.11 18.98C8.41675 19.4104 7.61155 19.6258 6.796 19.599C6.21 19.584 5.38 19.497 4.93 19.071C4.504 18.621 4.418 17.791 4.403 17.205C4.37591 16.3896 4.59095 15.5844 5.021 14.891C4.22687 14.7051 3.50555 14.2883 2.948 13.693C2.543 13.268 2.017 12.62 2 12C2.017 11.38 2.543 10.732 2.947 10.307C3.50468 9.7121 4.22599 9.29561 5.02 9.11C4.5896 8.41675 4.37421 7.61155 4.401 6.796C4.416 6.21 4.503 5.38 4.929 4.93C5.379 4.504 6.209 4.417 6.795 4.403C7.61044 4.37591 8.41564 4.59095 9.109 5.021C9.323 4.094 9.819 3.411 10.307 2.948C10.733 2.544 11.38 2.017 12 2ZM12.5 15.97C12.172 16.01 11.828 16.01 11.5 15.97C11.222 16.61 11 17.257 11 18.001C11 19.003 11.579 19.568 12 19.861C12.421 19.568 13 19.003 13 18.001C13 17.257 12.778 16.61 12.5 15.97ZM8.84 14.454C8.191 14.71 7.576 15.011 7.05 15.537C6.342 16.245 6.351 17.054 6.443 17.558C6.947 17.649 7.756 17.659 8.464 16.951C8.99 16.425 9.291 15.81 9.547 15.161C9.28269 14.9558 9.04517 14.7183 8.84 14.454ZM15.16 14.454C14.9548 14.7183 14.7173 14.9558 14.453 15.161C14.709 15.81 15.01 16.425 15.536 16.951C16.244 17.659 17.053 17.649 17.557 17.558C17.648 17.054 17.658 16.245 16.95 15.537C16.424 15.011 15.809 14.71 15.16 14.454ZM12 10C11.4696 10 10.9609 10.2107 10.5858 10.5858C10.2107 10.9609 10 11.4696 10 12C10 12.5304 10.2107 13.0391 10.5858 13.4142C10.9609 13.7893 11.4696 14 12 14C12.5304 14 13.0391 13.7893 13.4142 13.4142C13.7893 13.0391 14 12.5304 14 12C14 11.4696 13.7893 10.9609 13.4142 10.5858C13.0391 10.2107 12.5304 10 12 10ZM6 11C4.998 11 4.433 11.579 4.14 12C4.433 12.421 4.998 13 6 13C6.744 13 7.391 12.778 8.031 12.5C7.98917 12.168 7.98917 11.832 8.031 11.5C7.391 11.222 6.744 11 6 11ZM18 11C17.256 11 16.609 11.222 15.969 11.5C16.009 11.828 16.009 12.172 15.969 12.5C16.609 12.778 17.256 13 18 13C19.002 13 19.567 12.421 19.86 12C19.567 11.579 19.002 11 18 11ZM8.464 7.05C7.756 6.342 6.947 6.351 6.443 6.443C6.351 6.947 6.342 7.756 7.05 8.464C7.576 8.99 8.191 9.291 8.84 9.547C9.04517 9.28269 9.28269 9.04517 9.547 8.84C9.291 8.191 8.99 7.576 8.464 7.05ZM17.557 6.443C17.053 6.351 16.244 6.342 15.536 7.05C15.01 7.576 14.709 8.191 14.453 8.84C14.7183 9.04667 14.954 9.28233 15.16 9.547C15.809 9.291 16.424 8.99 16.95 8.464C17.658 7.756 17.648 6.947 17.557 6.443ZM12 4.14C11.579 4.432 11 4.997 11 5.999C11 6.743 11.222 7.39 11.5 8.03C11.828 7.99 12.172 7.99 12.5 8.03C12.778 7.39 13 6.743 13 5.999C13 4.997 12.421 4.433 12 4.14Z" fill="#126060"/>
</svg>
