<svg width="24" height="24" viewBox="0 0 24 24" fill="none" xmlns="http://www.w3.org/2000/svg">
<path d="M20.7742 6.39285V16.7619H3.22656V6.39285C3.22656 5.96976 3.39463 5.56401 3.6938 5.26484C3.99296 4.96568 4.39872 4.79761 4.8218 4.79761H19.1789C19.602 4.79761 20.0078 4.96568 20.3069 5.26484C20.6061 5.56401 20.7742 5.96976 20.7742 6.39285Z" fill="#00EAD9"/>
<path d="M22.3717 15.9643H21.574V6.39286C21.574 5.75823 21.3219 5.1496 20.8732 4.70085C20.4244 4.2521 19.8158 4 19.1812 4H4.82403C4.18941 4 3.58078 4.2521 3.13203 4.70085C2.68328 5.1496 2.43118 5.75823 2.43118 6.39286V15.9643H1.63356C1.42201 15.9643 1.21914 16.0483 1.06955 16.1979C0.919972 16.3475 0.835938 16.5504 0.835938 16.7619V18.3571C0.835938 18.9918 1.08804 19.6004 1.53679 20.0491C1.98554 20.4979 2.59417 20.75 3.22879 20.75H20.7764C21.411 20.75 22.0197 20.4979 22.4684 20.0491C22.9172 19.6004 23.1693 18.9918 23.1693 18.3571V16.7619C23.1693 16.5504 23.0852 16.3475 22.9357 16.1979C22.7861 16.0483 22.5832 15.9643 22.3717 15.9643ZM4.02641 6.39286C4.02641 6.18132 4.11045 5.97844 4.26003 5.82886C4.40961 5.67927 4.61249 5.59524 4.82403 5.59524H19.1812C19.3927 5.59524 19.5956 5.67927 19.7452 5.82886C19.8948 5.97844 19.9788 6.18132 19.9788 6.39286V15.9643H4.02641V6.39286ZM21.574 18.3571C21.574 18.5687 21.49 18.7716 21.3404 18.9211C21.1908 19.0707 20.988 19.1548 20.7764 19.1548H3.22879C3.01725 19.1548 2.81438 19.0707 2.66479 18.9211C2.51521 18.7716 2.43118 18.5687 2.43118 18.3571V17.5595H21.574V18.3571ZM14.3955 7.9881C14.3955 8.19964 14.3114 8.40251 14.1618 8.5521C14.0123 8.70168 13.8094 8.78571 13.5978 8.78571H10.4074C10.1958 8.78571 9.99295 8.70168 9.84336 8.5521C9.69378 8.40251 9.60975 8.19964 9.60975 7.9881C9.60975 7.77655 9.69378 7.57368 9.84336 7.42409C9.99295 7.27451 10.1958 7.19048 10.4074 7.19048H13.5978C13.8094 7.19048 14.0123 7.27451 14.1618 7.42409C14.3114 7.57368 14.3955 7.77655 14.3955 7.9881Z" fill="#126060"/>
</svg>
