<svg width="24" height="24" viewBox="0 0 24 24" fill="none" xmlns="http://www.w3.org/2000/svg">
<g clip-path="url(#clip0_9845_87052)">
<path d="M19 0C21.7614 2.51663e-08 24 2.23858 24 5V19C24 21.7614 21.7614 24 19 24H5.05469C2.29326 24 0.0546875 21.7614 0.0546875 19V5C0.0546875 2.23858 2.29326 2.51663e-08 5.05469 0H19ZM7.48242 9C7.26743 9 7.10339 9.05677 6.99023 9.16992C6.87708 9.28308 6.82031 9.45025 6.82031 9.6709V14.3291C6.82031 14.5384 6.87708 14.7035 6.99023 14.8223C7.10902 14.9409 7.27642 15 7.49121 15H10.4102C10.5912 15 10.73 14.9516 10.8262 14.8555C10.9279 14.7593 10.9785 14.6204 10.9785 14.4395C10.9784 14.2643 10.9279 14.1283 10.8262 14.0322C10.73 13.9361 10.5912 13.8887 10.4102 13.8887H8.13574V9.6709C8.13574 9.45025 8.07897 9.28308 7.96582 9.16992C7.85269 9.0568 7.69168 9.00003 7.48242 9ZM12.373 9.0166C12.1524 9.0166 11.9821 9.0765 11.8633 9.19531C11.7446 9.31407 11.6856 9.48366 11.6855 9.7041V14.3125C11.6855 14.5332 11.7445 14.7035 11.8633 14.8223C11.9821 14.941 12.1525 15 12.373 15H14.0273C14.5421 15 14.9976 14.9348 15.3936 14.8047C15.7896 14.6689 16.1239 14.4733 16.3955 14.2188C16.6668 13.9643 16.8733 13.6535 17.0146 13.2861C17.1617 12.9127 17.2354 12.4848 17.2354 12.0039C17.2353 11.048 16.9554 10.3126 16.3955 9.79785C15.8411 9.27734 15.0514 9.0166 14.0273 9.0166H12.373ZM13.9512 10.0947C14.5848 10.0947 15.0601 10.2535 15.377 10.5703C15.6992 10.8814 15.8603 11.3592 15.8604 12.0039C15.8604 12.3262 15.8213 12.6094 15.7422 12.8525C15.663 13.0901 15.5441 13.2889 15.3857 13.4473C15.2273 13.6057 15.0286 13.7245 14.791 13.8037C14.5535 13.8828 14.2735 13.9219 13.9512 13.9219H13.001V10.0947H13.9512Z" fill="#126060"/>
</g>
<defs>
<clipPath id="clip0_9845_87052">
<rect width="24" height="24" fill="white"/>
</clipPath>
</defs>
</svg>
