<svg width="24" height="24" viewBox="0 0 24 24" fill="none" xmlns="http://www.w3.org/2000/svg">
<g clip-path="url(#clip0_9398_123342)">
<path d="M12.1407 17.2591C9.31893 17.2591 7.02576 14.9733 7.02576 12.1441C7.02576 11.3325 7.21188 10.5731 7.53948 9.89557L5.03039 7.38647C2.25325 9.2106 0.45147 11.4591 0.324899 11.6155C0.0792005 11.9282 0.0792005 12.36 0.324899 12.6653C0.540815 12.9407 5.64835 19.2991 12.1407 19.2991C13.5554 19.2991 14.9104 18.9938 16.1613 18.5173L14.3892 16.7453C13.7117 17.0729 12.9448 17.2591 12.1407 17.2591Z" fill="#126060"/>
<path d="M23.9614 11.6154C23.7454 11.3474 18.6379 4.98901 12.1455 4.98901C10.7234 4.98901 9.36838 5.29427 8.125 5.76333L9.89701 7.54278C10.5745 7.21519 11.334 7.02161 12.1455 7.02161C14.9748 7.02161 17.2605 9.31479 17.2605 12.144C17.2605 12.9481 17.0744 13.715 16.7468 14.3925L19.2559 16.9016C22.0404 15.0701 23.8422 12.8216 23.9614 12.6652C24.2071 12.36 24.2071 11.9281 23.9614 11.6154Z" fill="#126060"/>
<path d="M12.1408 15.7774C12.5205 15.7774 12.8928 15.7178 13.2427 15.6061L8.67868 11.0347C8.567 11.3846 8.5 11.7569 8.5 12.144C8.5 14.1543 10.138 15.7774 12.1408 15.7774Z" fill="#126060"/>
<path d="M12.1406 8.5033C11.7534 8.5033 11.3812 8.5703 11.0312 8.68198L15.6027 13.246C15.7144 12.8961 15.774 12.5238 15.774 12.1441C15.774 10.1338 14.1509 8.5033 12.1406 8.5033Z" fill="#126060"/>
<path d="M3.58712 2.59162C3.31164 2.31614 2.8649 2.31614 2.58942 2.59162C2.31394 2.8671 2.31394 3.31382 2.58942 3.5893L20.6966 21.6965C20.8307 21.8305 21.0168 21.905 21.1955 21.905C21.3742 21.905 21.5529 21.8305 21.6943 21.6965C21.9698 21.421 21.9698 20.9743 21.6943 20.6988L3.58712 2.59162Z" fill="#00EAD9"/>
</g>
<defs>
<clipPath id="clip0_9398_123342">
<rect width="24" height="24" fill="white"/>
</clipPath>
</defs>
</svg>
