<svg width="25" height="24" viewBox="0 0 25 24" fill="none" xmlns="http://www.w3.org/2000/svg">
<path d="M22.3149 20.2041L17.8627 15.75C19.1976 14.0104 19.8208 11.8282 19.6059 9.64606C19.3911 7.46389 18.3542 5.44515 16.7056 3.99936C15.0571 2.55356 12.9203 1.78898 10.7288 1.8607C8.53721 1.93243 6.45499 2.83509 4.9045 4.38558C3.35401 5.93607 2.45135 8.01829 2.37963 10.2098C2.3079 12.4014 3.07249 14.5382 4.51828 16.1867C5.96407 17.8353 7.98281 18.8722 10.165 19.087C12.3472 19.3019 14.5294 18.6787 16.2689 17.3437L20.7249 21.8006C20.8295 21.9053 20.9537 21.9883 21.0905 22.0449C21.2272 22.1015 21.3737 22.1307 21.5217 22.1307C21.6697 22.1307 21.8163 22.1015 21.953 22.0449C22.0897 21.9883 22.214 21.9053 22.3186 21.8006C22.4232 21.696 22.5063 21.5717 22.5629 21.435C22.6195 21.2983 22.6487 21.1517 22.6487 21.0037C22.6487 20.8557 22.6195 20.7092 22.5629 20.5725C22.5063 20.4357 22.4232 20.3115 22.3186 20.2069L22.3149 20.2041ZM4.64391 10.5C4.64391 9.23914 5.0178 8.0066 5.7183 6.95823C6.41879 5.90987 7.41443 5.09277 8.57931 4.61026C9.74419 4.12775 11.026 4.00151 12.2626 4.24749C13.4992 4.49347 14.6352 5.10063 15.5267 5.99219C16.4183 6.88375 17.0254 8.01966 17.2714 9.25629C17.5174 10.4929 17.3912 11.7747 16.9086 12.9396C16.4261 14.1045 15.609 15.1001 14.5607 15.8006C13.5123 16.5011 12.2798 16.875 11.0189 16.875C9.32869 16.8733 7.7082 16.201 6.51303 15.0059C5.31786 13.8107 4.64565 12.1902 4.64391 10.5Z" fill="#126060"/>
<circle cx="10.9453" cy="10.4655" r="7.11719" fill="#00EAD9"/>
<path d="M13.952 10.9666H11.4464V13.4722C11.4464 13.6051 11.3936 13.7325 11.2997 13.8265C11.2057 13.9205 11.0782 13.9733 10.9453 13.9733C10.8124 13.9733 10.6849 13.9205 10.591 13.8265C10.497 13.7325 10.4442 13.6051 10.4442 13.4722V10.9666H7.93862C7.80571 10.9666 7.67825 10.9138 7.58427 10.8198C7.4903 10.7258 7.4375 10.5984 7.4375 10.4655C7.4375 10.3326 7.4903 10.2051 7.58427 10.1111C7.67825 10.0171 7.80571 9.96434 7.93862 9.96434H10.4442V7.45876C10.4442 7.32585 10.497 7.19839 10.591 7.10441C10.6849 7.01044 10.8124 6.95764 10.9453 6.95764C11.0782 6.95764 11.2057 7.01044 11.2997 7.10441C11.3936 7.19839 11.4464 7.32585 11.4464 7.45876V9.96434H13.952C14.0849 9.96434 14.2124 10.0171 14.3064 10.1111C14.4003 10.2051 14.4531 10.3326 14.4531 10.4655C14.4531 10.5984 14.4003 10.7258 14.3064 10.8198C14.2124 10.9138 14.0849 10.9666 13.952 10.9666Z" fill="#126060"/>
</svg>
