<svg width="24" height="24" viewBox="0 0 24 24" fill="none" xmlns="http://www.w3.org/2000/svg">
<path d="M14.8984 17.2656L21.8161 16.8269C22.3826 16.7904 22.7939 16.3061 22.7756 15.7395C22.739 15.1729 22.2456 14.7434 21.6881 14.78L15.0629 15.2003C14.8709 15.2095 14.7156 15.0541 14.7247 14.8713L14.7339 14.7708C14.7339 14.6155 14.8436 14.4967 14.9898 14.4692L20.4179 13.528C20.9754 13.4275 21.3409 12.8975 21.2495 12.34C21.1581 11.7826 20.6189 11.4079 20.0706 11.5084C20.0706 11.5084 15.6477 12.3217 14.6973 12.4405C13.7469 12.5685 13.2078 12.6233 12.367 12.669C11.8919 12.6873 11.5811 12.2852 12.0472 11.8191C12.0472 11.8191 13.1164 10.9419 13.6281 10.4392C14.149 9.9275 14.3226 9.38834 14.0028 8.86745C13.6555 8.31002 12.9154 8.1638 12.3853 8.53847C12.3853 8.53847 8.76655 10.7408 7.25873 12.1116C6.60077 12.7056 5.90625 13.5006 5.90625 14.3596C5.90625 16.105 5.90625 17.1194 5.90625 18.8922C5.90625 21.1951 8.17253 21.7251 10.4754 22.0449C12.7874 22.3648 19.102 23.1598 19.102 23.1598C19.6595 23.2329 20.1712 22.8308 20.2352 22.2642C20.3083 21.7068 19.9062 21.1951 19.3396 21.1311L14.7613 20.5919C14.5968 20.5737 14.478 20.4274 14.4872 20.263V20.2447C14.4963 20.0619 14.6425 19.934 14.8161 19.9431L20.7652 20.199C21.3317 20.2264 21.807 19.7878 21.8344 19.2212C21.8618 18.6637 21.4231 18.1794 20.8565 18.152L14.9075 17.8961C14.7339 17.887 14.5968 17.7408 14.6059 17.5671C14.6151 17.4027 14.743 17.2747 14.8984 17.2656Z" fill="#126060"/>
<path d="M4.30618 13.0255H1.93933C1.54639 13.0255 1.22656 13.3453 1.22656 13.7382V20.1259C1.22656 20.5189 1.54639 20.8387 1.93933 20.8387H4.30618C4.69912 20.8387 5.01897 20.5189 5.01897 20.1259V13.7382C5.01897 13.3453 4.69912 13.0255 4.30618 13.0255Z" fill="#126060"/>
<path d="M17.3843 2.41486C18.9053 2.41486 20.3729 3.0286 21.4225 4.08708C21.725 4.3984 22.2231 4.4073 22.5344 4.09598C22.5403 4.09598 22.5433 4.09598 22.5433 4.09598C22.8457 3.78467 22.8546 3.28656 22.5433 2.98414C21.2002 1.61434 19.3234 0.831604 17.3843 0.831604C15.4363 0.831604 13.604 1.58766 12.2253 2.96635C11.914 3.27767 11.914 3.77576 12.2253 4.08708C12.5366 4.3984 13.0348 4.3984 13.3461 4.08708C14.4223 3.01081 15.8633 2.41486 17.3843 2.41486Z" fill="#00EAD9"/>
<path d="M20.4071 6.22256C20.7185 5.91124 20.7185 5.41312 20.4071 5.10181C19.5977 4.29238 18.5303 3.84766 17.3918 3.84766C16.2444 3.84766 15.177 4.29238 14.3676 5.10181C14.0563 5.41312 14.0563 5.91124 14.3676 6.22256C14.67 6.53387 15.177 6.53387 15.4883 6.22256C15.9953 5.71555 16.6713 5.43091 17.3918 5.43091C18.1034 5.43091 18.7794 5.71556 19.2864 6.22256C19.5977 6.53387 20.1047 6.53387 20.4071 6.22256Z" fill="#00EAD9"/>
</svg>
