<svg width="24" height="24" viewBox="0 0 24 24" fill="none" xmlns="http://www.w3.org/2000/svg">
<path d="M22.1514 5.13457V14.4423H1.84375V5.13457C1.84375 4.68574 2.02205 4.2553 2.33942 3.93793C2.65678 3.62056 3.08723 3.44226 3.53606 3.44226H20.4591C20.908 3.44226 21.3384 3.62056 21.6558 3.93793C21.9731 4.2553 22.1514 4.68574 22.1514 5.13457Z" fill="#126060"/>
<path d="M4 14C3.45 14 2.97933 13.8602 2.588 13.5807C2.19667 13.3012 2.00067 12.9648 2 12.5714V5.42857C2 5.03571 2.196 4.69952 2.588 4.42C2.98 4.14048 3.45067 4.00048 4 4H20C20.55 4 21.021 4.14 21.413 4.42C21.805 4.7 22.0007 5.03619 22 5.42857V12.5714C22 12.9643 21.8043 13.3007 21.413 13.5807C21.0217 13.8607 20.5507 14.0005 20 14H4ZM8 11.8571H16V10.4286H8V11.8571ZM5 9.71428H7V8.28571H5V9.71428ZM8 9.71428H10V8.28571H8V9.71428ZM11 9.71428H13V8.28571H11V9.71428ZM14 9.71428H16V8.28571H14V9.71428ZM17 9.71428H19V8.28571H17V9.71428ZM5 7.57143H7V6.14286H5V7.57143ZM8 7.57143H10V6.14286H8V7.57143ZM11 7.57143H13V6.14286H11V7.57143ZM14 7.57143H16V6.14286H14V7.57143ZM17 7.57143H19V6.14286H17V7.57143Z" fill="#00EAD9"/>
<path d="M20.4615 2.59619H3.53846C2.86522 2.59619 2.21955 2.86364 1.7435 3.33969C1.26744 3.81574 1 4.46141 1 5.13465V16.9808C1 17.654 1.26744 18.2997 1.7435 18.7758C2.21955 19.2518 2.86522 19.5193 3.53846 19.5193H11.1538V21.2116H8.61538C8.39097 21.2116 8.17575 21.3007 8.01706 21.4594C7.85838 21.6181 7.76923 21.8333 7.76923 22.0577C7.76923 22.2821 7.85838 22.4974 8.01706 22.656C8.17575 22.8147 8.39097 22.9039 8.61538 22.9039H15.3846C15.609 22.9039 15.8243 22.8147 15.9829 22.656C16.1416 22.4974 16.2308 22.2821 16.2308 22.0577C16.2308 21.8333 16.1416 21.6181 15.9829 21.4594C15.8243 21.3007 15.609 21.2116 15.3846 21.2116H12.8462V19.5193H20.4615C21.1348 19.5193 21.7804 19.2518 22.2565 18.7758C22.7326 18.2997 23 17.654 23 16.9808V5.13465C23 4.46141 22.7326 3.81574 22.2565 3.33969C21.7804 2.86364 21.1348 2.59619 20.4615 2.59619ZM3.53846 4.2885H20.4615C20.686 4.2885 20.9012 4.37765 21.0599 4.53633C21.2185 4.69502 21.3077 4.91024 21.3077 5.13465V13.5962H2.69231V5.13465C2.69231 4.91024 2.78146 4.69502 2.94014 4.53633C3.09883 4.37765 3.31405 4.2885 3.53846 4.2885ZM20.4615 17.827H3.53846C3.31405 17.827 3.09883 17.7378 2.94014 17.5791C2.78146 17.4204 2.69231 17.2052 2.69231 16.9808V15.2885H21.3077V16.9808C21.3077 17.2052 21.2185 17.4204 21.0599 17.5791C20.9012 17.7378 20.686 17.827 20.4615 17.827Z" fill="#126060"/>
</svg>
