<svg width="24" height="24" viewBox="0 0 24 24" fill="none" xmlns="http://www.w3.org/2000/svg">
<g clip-path="url(#clip0_9398_123531)">
<path d="M19 0C21.7614 2.51663e-08 24 2.23858 24 5V19C24 21.7614 21.7614 24 19 24H5.05469C2.29326 24 0.0546875 21.7614 0.0546875 19V5C0.0546875 2.23858 2.29326 2.51663e-08 5.05469 0H19ZM2.53613 10.1104C2.35185 10.1104 2.20831 10.1589 2.10645 10.2559C2.00943 10.3529 1.96094 10.4964 1.96094 10.6855V14.7236C1.96094 14.908 2.00943 15.0515 2.10645 15.1533C2.20343 15.2551 2.34414 15.3056 2.52832 15.3057C2.71261 15.3057 2.85119 15.2551 2.94336 15.1533C3.04038 15.0515 3.08887 14.908 3.08887 14.7236V13.3926H4.30371C4.87588 13.3926 5.31749 13.2469 5.62793 12.9561C5.93832 12.6651 6.09369 12.2621 6.09375 11.748C6.09375 11.2338 5.93839 10.8331 5.62793 10.5469C5.31748 10.256 4.87594 10.1104 4.30371 10.1104H2.53613ZM11.6104 10.0449C11.4697 10.0449 11.3549 10.0746 11.2676 10.1328C11.1853 10.1862 11.1078 10.2805 11.0352 10.416L9.47754 13.2598L7.9209 10.416C7.8482 10.2803 7.76789 10.1862 7.68066 10.1328C7.59824 10.0746 7.4843 10.0449 7.33887 10.0449C7.17393 10.0449 7.04233 10.0914 6.94531 10.1836C6.85338 10.2757 6.80762 10.4046 6.80762 10.5693V14.7822C6.80766 14.947 6.8512 15.0758 6.93848 15.168C7.02571 15.2599 7.15179 15.3056 7.31641 15.3057C7.48611 15.3057 7.61284 15.26 7.69531 15.168C7.78259 15.0758 7.82613 14.947 7.82617 14.7822V12.1377L9.01953 14.2578C9.07286 14.3451 9.13331 14.4134 9.20117 14.4619C9.26898 14.5104 9.35639 14.5341 9.46289 14.5342C9.5696 14.5342 9.65471 14.5124 9.71777 14.4688C9.78569 14.4202 9.84902 14.35 9.90723 14.2578L11.1006 12.1211V14.7822C11.1006 14.947 11.1442 15.0758 11.2314 15.168C11.3236 15.2601 11.4523 15.3057 11.6172 15.3057C11.7819 15.3057 11.9078 15.2599 11.9951 15.168C12.0824 15.0758 12.1269 14.947 12.127 14.7822V10.5693C12.127 10.4045 12.0804 10.2758 11.9883 10.1836C11.901 10.0915 11.7751 10.045 11.6104 10.0449ZM13.7344 10.0957C13.5502 10.0957 13.4095 10.1443 13.3125 10.2412C13.2155 10.3382 13.167 10.4817 13.167 10.6709V14.666C13.1671 14.8453 13.2156 14.9861 13.3125 15.0879C13.4144 15.1896 13.558 15.2402 13.7422 15.2402H16.2451C16.4001 15.2402 16.5192 15.1995 16.6016 15.1172C16.6889 15.0347 16.7324 14.915 16.7324 14.7598C16.7323 14.6097 16.6887 14.4935 16.6016 14.4111C16.5191 14.3287 16.4002 14.2872 16.2451 14.2871H14.2949V10.6709C14.2949 10.4817 14.2464 10.3382 14.1494 10.2412C14.0524 10.1442 13.9138 10.0957 13.7344 10.0957ZM17.9277 10.1104C17.7386 10.1104 17.5931 10.1618 17.4912 10.2637C17.3893 10.3655 17.3379 10.511 17.3379 10.7002V14.6514C17.338 14.8404 17.3894 14.9861 17.4912 15.0879C17.5931 15.1895 17.7388 15.2402 17.9277 15.2402H19.3467C19.7878 15.2402 20.1782 15.1847 20.5176 15.0732C20.8569 14.9569 21.1432 14.7894 21.376 14.5713C21.6088 14.353 21.786 14.0858 21.9072 13.7705C22.0333 13.4504 22.0967 13.0842 22.0967 12.6719C22.0967 11.8521 21.8562 11.2217 21.376 10.7803C20.9007 10.3341 20.2245 10.1104 19.3467 10.1104H17.9277ZM19.2812 11.0342C19.8243 11.0342 20.2313 11.1708 20.5029 11.4424C20.7794 11.7092 20.918 12.1189 20.918 12.6719C20.918 12.9483 20.8843 13.1909 20.8164 13.3994C20.7485 13.6032 20.6466 13.7734 20.5107 13.9092C20.3749 14.045 20.2047 14.1469 20.001 14.2148C19.7974 14.2826 19.5574 14.3164 19.2812 14.3164H18.4658V11.0342H19.2812ZM4.11523 10.9912C4.40605 10.9913 4.62705 11.0536 4.77734 11.1797C4.93255 11.3058 5.00977 11.4958 5.00977 11.748C5.0097 11.9999 4.93224 12.1914 4.77734 12.3223C4.62705 12.4532 4.40605 12.5185 4.11523 12.5186H3.08887V10.9912H4.11523Z" fill="#126060"/>
</g>
<defs>
<clipPath id="clip0_9398_123531">
<rect width="24" height="24" fill="white"/>
</clipPath>
</defs>
</svg>
