<svg width="24" height="24" viewBox="0 0 24 24" fill="none" xmlns="http://www.w3.org/2000/svg">
<g clip-path="url(#clip0_9780_82560)">
<g clip-path="url(#clip1_9780_82560)">
<path d="M15.5121 15.1177H9.32812V18.776H15.5121V15.1177Z" fill="#1C7E82"/>
<path d="M14.1021 9.4026C13.9159 9.4026 13.7656 9.25232 13.7656 9.06615V6.95998C13.7656 6.77382 13.9159 6.62354 14.1021 6.62354C14.2882 6.62354 14.4385 6.77382 14.4385 6.95998V9.06615C14.4385 9.25232 14.2882 9.4026 14.1021 9.4026Z" fill="#1C7E82"/>
<path d="M14.1016 7.40408C14.4856 7.40408 14.7969 7.09277 14.7969 6.70875C14.7969 6.32474 14.4856 6.01343 14.1016 6.01343C13.7176 6.01343 13.4062 6.32474 13.4062 6.70875C13.4062 7.09277 13.7176 7.40408 14.1016 7.40408Z" fill="#00EAD9"/>
<path d="M15.9567 9.96103H6.18852C5.81619 9.96103 5.51562 9.66047 5.51562 9.28813C5.51562 8.9158 5.81619 8.61523 6.18852 8.61523H15.9567C16.3291 8.61523 16.6296 8.9158 16.6296 9.28813C16.6296 9.66047 16.3291 9.96103 15.9567 9.96103Z" fill="#1C7E82"/>
<path d="M18.229 16.4456H7.66455C6.58119 16.4456 5.67053 15.6 5.58979 14.5189L4.59614 1.06764C4.5625 0.634744 4.88773 0.257921 5.32063 0.224277C5.75353 0.192875 6.13035 0.515865 6.16175 0.948762L7.15539 14.4C7.17558 14.6646 7.39764 14.8732 7.66455 14.8732H18.229C18.6619 14.8732 19.0141 15.2254 19.0141 15.6583C19.0141 16.0912 18.6619 16.4433 18.229 16.4433V16.4456Z" fill="#126060"/>
<path d="M14.1021 9.4026C13.9159 9.4026 13.7656 9.25232 13.7656 9.06615V6.95998C13.7656 6.77382 13.9159 6.62354 14.1021 6.62354C14.2882 6.62354 14.4385 6.77382 14.4385 6.95998V9.06615C14.4385 9.25232 14.2882 9.4026 14.1021 9.4026Z" fill="#1C7E82"/>
<path d="M14.1016 7.40408C14.4856 7.40408 14.7969 7.09277 14.7969 6.70875C14.7969 6.32474 14.4856 6.01343 14.1016 6.01343C13.7176 6.01343 13.4062 6.32474 13.4062 6.70875C13.4062 7.09277 13.7176 7.40408 14.1016 7.40408Z" fill="#00EAD9"/>
<path d="M15.9567 9.96103H6.18852C5.81619 9.96103 5.51562 9.66047 5.51562 9.28813C5.51562 8.9158 5.81619 8.61523 6.18852 8.61523H15.9567C16.3291 8.61523 16.6296 8.9158 16.6296 9.28813C16.6296 9.66047 16.3291 9.96103 15.9567 9.96103Z" fill="#1C7E82"/>
<path d="M8.03715 17.8811H16.3497C17.6596 17.8811 18.7205 18.9443 18.7205 20.2519V22.9099H5.66406V20.2519C5.66406 18.942 6.72724 17.8811 8.0349 17.8811H8.03715Z" fill="#126060"/>
<path d="M15.2272 22.1598C16.1101 20.6055 15.5659 18.6298 14.0117 17.7468C12.4574 16.8639 10.4817 17.4081 9.59871 18.9624C8.71577 20.5166 9.25998 22.4924 10.8142 23.3753C12.3685 24.2583 14.3442 23.7141 15.2272 22.1598Z" fill="#00EAD9"/>
<path d="M14.4576 21.7199C15.0976 20.5932 14.7031 19.1611 13.5765 18.521C12.4498 17.881 11.0176 18.2755 10.3776 19.4022C9.73759 20.5288 10.1321 21.961 11.2587 22.601C12.3854 23.241 13.8176 22.8465 14.4576 21.7199Z" fill="#126060"/>
<path d="M19.0141 15.508C19.0141 14.225 17.9733 13.1842 16.6903 13.1842L7.10156 13.6799L6.16175 0.95097C6.13035 0.518072 5.75353 0.195082 5.32063 0.224241C4.88773 0.255642 4.5625 0.632465 4.59614 1.06536L5.58979 14.5166C5.67053 15.5977 6.58119 16.4433 7.66455 16.4433H18.229C18.644 16.4433 18.9804 16.1203 19.0096 15.7143H19.0163V15.508H19.0141Z" fill="#126060"/>
<path d="M4.3604 22.9099H3.6875V21.6247C3.6875 20.9518 4.23479 20.4067 4.90544 20.4067H7.37049V21.0796H4.90544C4.60488 21.0796 4.3604 21.3241 4.3604 21.6247V22.9099Z" fill="#126060"/>
<path d="M4.02661 23.7959C4.51592 23.7959 4.91259 23.3992 4.91259 22.9099C4.91259 22.4206 4.51592 22.0239 4.02661 22.0239C3.53729 22.0239 3.14062 22.4206 3.14062 22.9099C3.14062 23.3992 3.53729 23.7959 4.02661 23.7959Z" fill="#00EAD9"/>
<path d="M20.6986 22.9099H20.0257V21.6247C20.0257 21.3241 19.7812 21.0796 19.4807 21.0796H17.0156V20.4067H19.4807C20.1536 20.4067 20.6986 20.954 20.6986 21.6247V22.9099Z" fill="#126060"/>
<path d="M20.3625 23.7959C20.8519 23.7959 21.2485 23.3992 21.2485 22.9099C21.2485 22.4206 20.8519 22.0239 20.3625 22.0239C19.8732 22.0239 19.4766 22.4206 19.4766 22.9099C19.4766 23.3992 19.8732 23.7959 20.3625 23.7959Z" fill="#00EAD9"/>
</g>
</g>
<defs>
<clipPath id="clip0_9780_82560">
<rect width="24" height="24" fill="white"/>
</clipPath>
<clipPath id="clip1_9780_82560">
<rect width="18.1107" height="24.7519" fill="white" transform="translate(3.14062 0.222168)"/>
</clipPath>
</defs>
</svg>
