<svg width="24" height="24" viewBox="0 0 24 24" fill="none" xmlns="http://www.w3.org/2000/svg">
<path d="M20.459 3.44238C20.9078 3.44238 21.3389 3.62013 21.6562 3.9375C21.9736 4.25487 22.1514 4.68595 22.1514 5.13477V14.4424H1.84375V5.13477C1.84375 4.68594 2.02247 4.25487 2.33984 3.9375C2.65717 3.6204 3.08751 3.44238 3.53613 3.44238H20.459ZM10.8945 10.4072C10.4849 10.4074 10.1525 10.7397 10.1523 11.1494V11.8584C10.1523 12.2682 10.4848 12.6004 10.8945 12.6006C11.3044 12.6006 11.6367 12.2683 11.6367 11.8584V11.1494C11.6366 10.7396 11.3043 10.4072 10.8945 10.4072ZM9.50781 7.38281C8.95553 7.38281 8.50781 7.83053 8.50781 8.38281V9.36133C8.50781 9.91361 8.95553 10.3613 9.50781 10.3613H11C11.5523 10.3613 12 9.91361 12 9.36133V8.38281C12 7.83053 11.5523 7.38281 11 7.38281H9.50781Z" fill="#00EAD9"/>
<path d="M20.4615 2.59619H3.53846C2.86522 2.59619 2.21955 2.86364 1.7435 3.33969C1.26744 3.81574 1 4.46141 1 5.13465V16.9808C1 17.654 1.26744 18.2997 1.7435 18.7758C2.21955 19.2518 2.86522 19.5193 3.53846 19.5193H11.1538V21.2116H8.61538C8.39097 21.2116 8.17575 21.3007 8.01706 21.4594C7.85838 21.6181 7.76923 21.8333 7.76923 22.0577C7.76923 22.2821 7.85838 22.4974 8.01706 22.656C8.17575 22.8147 8.39097 22.9039 8.61538 22.9039H15.3846C15.609 22.9039 15.8243 22.8147 15.9829 22.656C16.1416 22.4974 16.2308 22.2821 16.2308 22.0577C16.2308 21.8333 16.1416 21.6181 15.9829 21.4594C15.8243 21.3007 15.609 21.2116 15.3846 21.2116H12.8462V19.5193H20.4615C21.1348 19.5193 21.7804 19.2518 22.2565 18.7758C22.7326 18.2997 23 17.654 23 16.9808V5.13465C23 4.46141 22.7326 3.81574 22.2565 3.33969C21.7804 2.86364 21.1348 2.59619 20.4615 2.59619ZM3.53846 4.2885H20.4615C20.686 4.2885 20.9012 4.37765 21.0599 4.53633C21.2185 4.69502 21.3077 4.91024 21.3077 5.13465V13.5962H2.69231V5.13465C2.69231 4.91024 2.78146 4.69502 2.94014 4.53633C3.09883 4.37765 3.31405 4.2885 3.53846 4.2885ZM20.4615 17.827H3.53846C3.31405 17.827 3.09883 17.7378 2.94014 17.5791C2.78146 17.4204 2.69231 17.2052 2.69231 16.9808V15.2885H21.3077V16.9808C21.3077 17.2052 21.2185 17.4204 21.0599 17.5791C20.9012 17.7378 20.686 17.827 20.4615 17.827Z" fill="#126060"/>
<path d="M9.93658 6.91942H11.5285C11.6449 6.91262 13.6732 6.76983 15.6047 5.14991C15.698 5.07157 15.8117 5.02148 15.9324 5.00552C16.0532 4.98956 16.176 5.00839 16.2864 5.0598C16.3968 5.11121 16.4903 5.19306 16.5558 5.29575C16.6213 5.39843 16.6562 5.51768 16.6562 5.63948V12.0392C16.6562 12.161 16.6214 12.2803 16.556 12.383C16.4905 12.4858 16.397 12.5677 16.2866 12.6192C16.1761 12.6706 16.0533 12.6895 15.9325 12.6735C15.8117 12.6576 15.698 12.6075 15.6047 12.5291C14.094 11.262 12.5249 10.8988 11.8565 10.7972V12.066C11.8566 12.1714 11.8307 12.2753 11.781 12.3683C11.7313 12.4613 11.6594 12.5406 11.5717 12.5991L11.1317 12.8923C11.0467 12.9491 10.9493 12.9846 10.8477 12.996C10.7461 13.0074 10.6432 12.9943 10.5477 12.9577C10.4522 12.9212 10.3669 12.8623 10.2988 12.786C10.2308 12.7097 10.182 12.6182 10.1566 12.5191L9.68579 10.7448C9.19912 10.685 8.75377 10.4413 8.44107 10.0636C8.12837 9.68595 7.97203 9.20294 8.00411 8.71366C8.03618 8.22438 8.25425 7.76591 8.61358 7.43229C8.97291 7.09866 9.44627 6.91516 9.93658 6.91942ZM10.7765 12.3548V12.3592L11.2165 12.066V10.7592H10.3526L10.7765 12.3548ZM9.93658 10.1193H11.2165V7.55939H9.93658C9.59712 7.55939 9.27156 7.69424 9.03153 7.93427C8.79149 8.17431 8.65664 8.49986 8.65664 8.83932C8.65664 9.17878 8.79149 9.50434 9.03153 9.74438C9.27156 9.98441 9.59712 10.1193 9.93658 10.1193Z" fill="#126060"/>
</svg>
