<svg width="24" height="24" viewBox="0 0 24 24" fill="none" xmlns="http://www.w3.org/2000/svg">
<g clip-path="url(#clip0_9280_87920)">
<path d="M6.4669 4.89901C6.73441 4.36399 6.51769 3.71383 5.98267 3.44632C5.44764 3.17881 4.79749 3.39552 4.52998 3.93055L1.6212 9.74471C1.31983 10.3475 1.16406 11.0112 1.16406 11.685V11.9999C1.16406 14.394 3.10437 16.3343 5.49844 16.3343H8.20742V16.3242C9.39937 16.2327 10.422 15.5521 10.9875 14.5735C11.2855 14.0554 11.1094 13.3917 10.5913 13.0937C10.0732 12.7957 9.40953 12.9718 9.11155 13.4899C8.87451 13.8962 8.43769 14.1671 7.93652 14.1671C7.18817 14.1671 6.58203 13.561 6.58203 12.8126C6.58203 12.0643 7.18817 11.4581 7.93652 11.4581C8.43769 11.4581 8.87451 11.729 9.11155 12.1354C9.40953 12.6535 10.0732 12.8296 10.5913 12.5316C11.1094 12.2336 11.2855 11.5699 10.9875 11.0518C10.5541 10.3034 9.84974 9.72778 9.00996 9.45688L11.746 8.71191C12.3217 8.55614 12.6637 7.96016 12.5079 7.38112C12.3522 6.80207 11.7562 6.46345 11.1771 6.61922L7.76721 7.55043L10.5304 5.24779C10.9909 4.86515 11.0519 4.18113 10.6692 3.7206C10.2866 3.26008 9.59916 3.19912 9.13864 3.58177L5.68807 6.45668L6.4669 4.89901ZM17.5331 19.1009C17.2656 19.6359 17.4823 20.286 18.0173 20.5536C18.5524 20.8211 19.2025 20.6043 19.47 20.0693L22.3788 14.2552C22.6802 13.6524 22.8359 12.9887 22.8359 12.3182V12.0033C22.8359 9.60926 20.8956 7.66895 18.5016 7.66895H15.7926V7.67911C14.6006 7.77053 13.578 8.45117 13.0125 9.42979C12.7111 9.94788 12.8906 10.6116 13.4087 10.9096C13.9268 11.2076 14.5905 11.0315 14.8885 10.5134C15.1255 10.107 15.5623 9.83613 16.0635 9.83613C16.8118 9.83613 17.418 10.4423 17.418 11.1906C17.418 11.939 16.8118 12.5451 16.0635 12.5451C15.5623 12.5451 15.1255 12.2742 14.8885 11.8679C14.5871 11.3498 13.9268 11.1737 13.4087 11.4717C12.8906 11.7697 12.7145 12.4334 13.0125 12.9515C13.4459 13.6998 14.1503 14.2755 14.99 14.5464L12.254 15.2914C11.6749 15.4471 11.3363 16.0431 11.4921 16.6221C11.6478 17.2012 12.2438 17.5398 12.8229 17.384L16.2328 16.4528L13.4696 18.7555C13.0091 19.1381 12.9481 19.8221 13.3308 20.2827C13.7134 20.7432 14.3975 20.8041 14.858 20.4215L18.3085 17.5466L17.5297 19.1042L17.5331 19.1009Z" fill="#126060"/>
</g>
<defs>
<clipPath id="clip0_9280_87920">
<rect width="21.6719" height="17.3375" fill="white" transform="translate(1.16406 3.33118)"/>
</clipPath>
</defs>
</svg>
