<svg width="24" height="24" viewBox="0 0 24 24" fill="none" xmlns="http://www.w3.org/2000/svg">
<path d="M6.4375 5.54598C6.4375 4.29967 6.4375 3.67652 6.68008 3.20025C6.89345 2.78151 7.2339 2.44106 7.65265 2.22769C8.12891 1.98511 8.75206 1.98511 9.99837 1.98511H14.0043C15.2507 1.98511 15.8738 1.98511 16.3501 2.22769C16.7688 2.44106 17.1093 2.78151 17.3226 3.20025C17.5652 3.67652 17.5652 4.29967 17.5652 5.54598V18.4541C17.5652 19.7004 17.5652 20.3236 17.3226 20.7999C17.1093 21.2186 16.7688 21.559 16.3501 21.7724C15.8738 22.015 15.2507 22.015 14.0043 22.015H9.99837C8.75206 22.015 8.12891 22.015 7.65265 21.7724C7.2339 21.559 6.89345 21.2186 6.68008 20.7999C6.4375 20.3236 6.4375 19.7004 6.4375 18.4541V5.54598Z" fill="#00EAD9"/>
<path d="M9.5 19.7894C9.5 19.6419 9.55862 19.5003 9.66296 19.396C9.7673 19.2917 9.90882 19.233 10.0564 19.233H13.9511C14.0986 19.233 14.2402 19.2917 14.3445 19.396C14.4489 19.5003 14.5075 19.6419 14.5075 19.7894C14.5075 19.937 14.4489 20.0785 14.3445 20.1828C14.2402 20.2872 14.0986 20.3458 13.9511 20.3458H10.0564C9.90882 20.3458 9.7673 20.2872 9.66296 20.1828C9.55862 20.0785 9.5 19.937 9.5 19.7894Z" fill="#126060"/>
<path d="M9.96363 1.15051H14.0364C14.6317 1.15051 15.1269 1.15051 15.5331 1.1839C15.9559 1.21728 16.352 1.29295 16.7271 1.48434C17.303 1.77775 17.7712 2.24598 18.0646 2.8219C18.256 3.1969 18.3317 3.59305 18.3651 4.0159C18.3984 4.42206 18.3984 4.91725 18.3984 5.51258V18.4875C18.3984 19.0828 18.3984 19.578 18.3651 19.9842C18.3317 20.407 18.256 20.8032 18.0646 21.1782C17.7715 21.7539 17.3037 22.2221 16.7282 22.5157C16.3521 22.7071 15.9559 22.7828 15.5331 22.8162C15.1269 22.8496 14.6317 22.8496 14.0375 22.8496H9.96363C9.36829 22.8496 8.87311 22.8496 8.46695 22.8162C8.0441 22.7828 7.64795 22.7071 7.27295 22.5157C6.69737 22.2229 6.22918 21.7555 5.93539 21.1804C5.744 20.8043 5.66833 20.4081 5.63495 19.9853C5.60156 19.5791 5.60156 19.0839 5.60156 18.4886V5.51258C5.60156 4.91725 5.60156 4.42206 5.63495 4.0159C5.66833 3.59305 5.744 3.1969 5.93539 2.8219C6.2288 2.24598 6.69703 1.77775 7.27295 1.48434C7.64795 1.29295 8.0441 1.21728 8.46695 1.1839C8.87311 1.15051 9.36829 1.15051 9.96363 1.15051ZM8.60271 2.84749C8.28334 2.87308 8.13089 2.91982 8.03074 2.97101C7.76859 3.10444 7.55549 3.31754 7.42206 3.57969C7.37087 3.67984 7.32413 3.83229 7.29854 4.15166C7.27183 4.48104 7.27072 4.90834 7.27072 5.54596V18.4541C7.27072 19.0906 7.27072 19.519 7.29854 19.8473C7.32413 20.1678 7.37087 20.3202 7.42206 20.4204C7.55559 20.683 7.76813 20.8955 8.03074 21.0291C8.13089 21.0803 8.28334 21.127 8.60271 21.1526C8.93209 21.1793 9.35939 21.1804 9.99701 21.1804H14.003C14.6395 21.1804 15.0679 21.1804 15.3962 21.1526C15.7167 21.127 15.8691 21.0803 15.9704 21.0291C16.2321 20.8954 16.4448 20.6824 16.5779 20.4204C16.6291 20.3202 16.6759 20.1678 16.7015 19.8473C16.7282 19.519 16.7293 19.0906 16.7293 18.4541V5.54596C16.7293 4.90946 16.7293 4.48104 16.7015 4.15166C16.6759 3.83229 16.6291 3.67984 16.5779 3.57969C16.4448 3.31771 16.2321 3.10463 15.9704 2.97101C15.8691 2.91982 15.7167 2.87308 15.3973 2.84749C15.1614 2.83059 14.925 2.82205 14.6885 2.8219L14.5505 3.23696C14.4336 3.58637 14.3747 3.76219 14.2667 3.89127C14.1713 4.00535 14.0489 4.09372 13.9106 4.14832C13.7526 4.21063 13.5679 4.21063 13.1985 4.21063H10.8015C10.4321 4.21063 10.2474 4.21063 10.0894 4.14832C9.95119 4.09403 9.82878 4.00605 9.73328 3.89238C9.62535 3.76219 9.56637 3.58637 9.44953 3.23585L9.31154 2.8219C9.07504 2.82205 8.83861 2.83059 8.60271 2.84749Z" fill="#126060"/>
</svg>
