<svg width="25" height="24" viewBox="0 0 25 24" fill="none" xmlns="http://www.w3.org/2000/svg">
<path d="M22.8359 11.3793C22.8359 16.5327 18.0611 20.7103 12.1719 20.7103C11.1156 20.7127 10.0637 20.5755 9.04331 20.3024C8.26483 20.697 6.47727 21.4541 3.47 21.9474C3.2034 21.99 3.00078 21.7127 3.10609 21.4648C3.57797 20.3504 4.00454 18.8654 4.1325 17.5111C2.49957 15.8715 1.50781 13.7254 1.50781 11.3793C1.50781 6.22586 6.28265 2.04822 12.1719 2.04822C18.0611 2.04822 22.8359 6.22586 22.8359 11.3793ZM8.17285 11.3793C8.17285 11.0257 8.03241 10.6867 7.78242 10.4367C7.53243 10.1867 7.19338 10.0463 6.83984 10.0463C6.48631 10.0463 6.14725 10.1867 5.89726 10.4367C5.64728 10.6867 5.50684 11.0257 5.50684 11.3793C5.50684 11.7328 5.64728 12.0719 5.89726 12.3219C6.14725 12.5718 6.48631 12.7123 6.83984 12.7123C7.19338 12.7123 7.53243 12.5718 7.78242 12.3219C8.03241 12.0719 8.17285 11.7328 8.17285 11.3793ZM13.5049 11.3793C13.5049 11.0257 13.3644 10.6867 13.1145 10.4367C12.8645 10.1867 12.5254 10.0463 12.1719 10.0463C11.8183 10.0463 11.4793 10.1867 11.2293 10.4367C10.9793 10.6867 10.8389 11.0257 10.8389 11.3793C10.8389 11.7328 10.9793 12.0719 11.2293 12.3219C11.4793 12.5718 11.8183 12.7123 12.1719 12.7123C12.5254 12.7123 12.8645 12.5718 13.1145 12.3219C13.3644 12.0719 13.5049 11.7328 13.5049 11.3793ZM17.5039 12.7123C17.8574 12.7123 18.1965 12.5718 18.4465 12.3219C18.6965 12.0719 18.8369 11.7328 18.8369 11.3793C18.8369 11.0257 18.6965 10.6867 18.4465 10.4367C18.1965 10.1867 17.8574 10.0463 17.5039 10.0463C17.1504 10.0463 16.8113 10.1867 16.5613 10.4367C16.3113 10.6867 16.1709 11.0257 16.1709 11.3793C16.1709 11.7328 16.3113 12.0719 16.5613 12.3219C16.8113 12.5718 17.1504 12.7123 17.5039 12.7123Z" fill="#126060"/>
</svg>
