<svg width="24" height="24" viewBox="0 0 24 24" fill="none" xmlns="http://www.w3.org/2000/svg">
<path d="M6.34304 3.86963L5.49371 4.71896L17.4844 16.7191L18.3344 15.8691L6.34304 3.86963ZM22.9184 21.2943C23.0307 21.1814 23.0938 21.0286 23.0938 20.8693C23.0938 20.71 23.0307 20.5572 22.9184 20.4443L20.3684 17.8943C20.2555 17.782 20.1027 17.7189 19.9434 17.7189C19.7841 17.7189 19.6313 17.782 19.5184 17.8943C19.4061 18.0072 19.343 18.16 19.343 18.3193C19.343 18.4786 19.4061 18.6314 19.5184 18.7443L22.0684 21.2943C22.1814 21.4065 22.3342 21.4694 22.4934 21.4694C22.6526 21.4694 22.8054 21.4065 22.9184 21.2943Z" fill="#00EAD9"/>
<path d="M18.1241 15.649L17.2741 16.499L20.6741 19.899L21.5234 19.0484L18.1241 15.649Z" fill="#00EAD9"/>
<path d="M8.26994 6.63836C8.38226 6.52543 8.44531 6.37263 8.44531 6.21336C8.44531 6.05408 8.38226 5.90129 8.26994 5.78836L5.71994 3.23836C5.60702 3.12604 5.45422 3.06299 5.29494 3.06299C5.13567 3.06299 4.98287 3.12604 4.86994 3.23836C4.75762 3.35129 4.69457 3.50408 4.69457 3.66336C4.69457 3.82263 4.75762 3.97543 4.86994 4.08836L7.41994 6.63836C7.53287 6.75068 7.68567 6.81373 7.84494 6.81373C8.00422 6.81373 8.15701 6.75068 8.26994 6.63836Z" fill="#126060"/>
<path d="M7.74217 7.16786L8.80084 6.10919C8.86333 6.04668 8.89844 5.96191 8.89844 5.87353C8.89844 5.78514 8.86333 5.70037 8.80084 5.63786L8.42218 5.25919C8.35967 5.1967 8.2749 5.1616 8.18651 5.1616C8.09812 5.1616 8.01335 5.1967 7.95084 5.25919L6.89218 6.31786C6.82968 6.38037 6.79458 6.46514 6.79458 6.55353C6.79458 6.64191 6.82968 6.72668 6.89218 6.78919L7.27084 7.16786C7.33335 7.23035 7.41812 7.26545 7.50651 7.26545C7.5949 7.26545 7.67967 7.23035 7.74217 7.16786ZM3.12618 4.99519C4.14418 4.85186 5.15418 4.00519 5.20218 3.96519L5.42084 3.77986L5.24684 3.55319C4.55351 2.65053 2.67684 2.23786 1.66951 2.76053C0.910842 3.15453 0.883509 3.63919 0.934175 3.89253C1.05084 4.47386 1.77618 4.93319 2.69951 5.01053C2.83995 5.02075 2.98218 5.01564 3.12618 4.99519ZM4.55818 3.70253C4.11551 4.01853 3.34818 4.45853 2.74951 4.41053C2.08151 4.35453 1.57618 4.03586 1.52351 3.77386C1.48084 3.55986 1.80551 3.36586 1.94684 3.29319C2.62751 2.93719 3.91151 3.16719 4.55818 3.70253Z" fill="#126060"/>
</svg>
