<svg width="24" height="24" viewBox="0 0 24 24" fill="none" xmlns="http://www.w3.org/2000/svg">
<g clip-path="url(#clip0_9597_81383)">
<path d="M19 0C21.7614 2.51663e-08 24 2.23858 24 5V19C24 21.7614 21.7614 24 19 24H5.05469C2.29326 24 0.0546875 21.7614 0.0546875 19V5C0.0546875 2.23858 2.29326 2.51663e-08 5.05469 0H19ZM16.9238 9.35449C16.5106 9.35449 16.1353 9.41708 15.7979 9.54102C15.4603 9.65812 15.1708 9.83029 14.9297 10.0576C14.6956 10.2849 14.5166 10.5602 14.3926 10.8838C14.2686 11.2076 14.2061 11.5731 14.2061 11.9795C14.2061 12.5235 14.3168 12.9951 14.5371 13.3945C14.7575 13.7941 15.0711 14.1048 15.4775 14.3252C15.8908 14.5386 16.3729 14.6455 16.9238 14.6455C17.1374 14.6455 17.3615 14.6176 17.5957 14.5625C17.8298 14.5143 18.0638 14.4315 18.2979 14.3145C18.4286 14.2525 18.5181 14.1667 18.5664 14.0566C18.6215 13.9396 18.6426 13.8221 18.6289 13.7051C18.622 13.5811 18.5835 13.4743 18.5146 13.3848C18.4527 13.2884 18.3669 13.2229 18.2568 13.1885C18.1466 13.154 18.0225 13.1713 17.8848 13.2402C17.7471 13.3159 17.6093 13.3708 17.4717 13.4053C17.334 13.4328 17.203 13.4463 17.0791 13.4463C16.6727 13.4463 16.3553 13.3193 16.1279 13.0645C15.9075 12.8027 15.7979 12.4439 15.7979 11.9893C15.7979 11.7554 15.8249 11.549 15.8799 11.3701C15.9418 11.1912 16.0247 11.0428 16.1279 10.9258C16.2381 10.8018 16.3728 10.7085 16.5312 10.6465C16.6897 10.5776 16.8725 10.543 17.0791 10.543C17.203 10.543 17.334 10.5603 17.4717 10.5947C17.6162 10.6292 17.754 10.6841 17.8848 10.7598C18.0225 10.8287 18.1466 10.8498 18.2568 10.8223C18.367 10.7878 18.4565 10.7253 18.5254 10.6357C18.6011 10.5393 18.6464 10.4325 18.6602 10.3154C18.6738 10.1917 18.6526 10.0749 18.5977 9.96484C18.5494 9.84774 18.4561 9.75731 18.3184 9.69531C18.0843 9.57144 17.8464 9.48569 17.6055 9.4375C17.3645 9.38243 17.1373 9.3545 16.9238 9.35449ZM13.0635 9.375C12.912 9.375 12.7705 9.41645 12.6396 9.49902C12.5088 9.58169 12.402 9.73366 12.3193 9.9541L11.291 12.7549L10.2324 9.86133C10.1704 9.70289 10.0839 9.58169 9.97363 9.49902C9.87037 9.4165 9.73255 9.37504 9.56055 9.375C9.38844 9.375 9.24691 9.41646 9.13672 9.49902C9.03339 9.5748 8.95452 9.696 8.89941 9.86133L7.83887 12.7041L6.82227 9.99512C6.73962 9.75415 6.63952 9.59242 6.52246 9.50977C6.40536 9.42022 6.25721 9.37501 6.07812 9.375C5.86458 9.375 5.69529 9.42407 5.57129 9.52051C5.45448 9.61002 5.38201 9.73051 5.35449 9.88184C5.32701 10.0264 5.35114 10.1951 5.42676 10.3877L6.88379 13.9941C6.97329 14.2145 7.0908 14.3762 7.23535 14.4795C7.38001 14.5759 7.55603 14.625 7.7627 14.625C7.96909 14.6249 8.14452 14.5729 8.28906 14.4697C8.43361 14.3596 8.54724 14.1977 8.62988 13.9844L9.50684 11.6523L10.4072 13.9941C10.4968 14.2077 10.6142 14.3664 10.7588 14.4697C10.9103 14.5731 11.0864 14.625 11.2861 14.625C11.4925 14.625 11.6679 14.5729 11.8125 14.4697C11.9641 14.3664 12.0814 14.2077 12.1641 13.9941L13.6113 10.3877C13.687 10.2088 13.714 10.043 13.6934 9.8916C13.6795 9.74043 13.6177 9.61681 13.5078 9.52051C13.4045 9.42411 13.2562 9.37504 13.0635 9.375Z" fill="#126060"/>
</g>
<defs>
<clipPath id="clip0_9597_81383">
<rect width="24" height="24" fill="white"/>
</clipPath>
</defs>
</svg>
