<svg width="24" height="24" viewBox="0 0 24 24" fill="none" xmlns="http://www.w3.org/2000/svg">
<path d="M21.7573 19.261C21.3703 19.6425 20.7483 19.6407 20.3635 19.257L6.65842 5.58996C6.40987 5.37143 6.08733 5.25592 5.75655 5.26699C5.42578 5.27806 5.11168 5.41487 4.87829 5.64953C4.64491 5.88419 4.50981 6.19903 4.50054 6.52986C4.49128 6.86069 4.60854 7.1826 4.82842 7.42996L5.49342 8.09496C5.88318 8.48472 5.8843 9.11631 5.49591 9.50745C5.10558 9.90055 4.47013 9.90167 4.07842 9.50996L3.40842 8.83996C2.9483 8.37848 2.63511 7.79109 2.50835 7.15186C2.38158 6.51263 2.44692 5.85018 2.69612 5.24803C2.94533 4.64589 3.36723 4.131 3.90865 3.7683C4.45006 3.4056 5.08675 3.21132 5.73842 3.20996C6.17372 3.21369 6.60393 3.30403 7.00396 3.47571C7.40399 3.6474 7.76584 3.897 8.06842 4.20996L21.7611 17.8551C22.1507 18.2434 22.149 18.8748 21.7573 19.261Z" fill="#126060"/>
</svg>
