<svg width="24" height="24" viewBox="0 0 24 24" fill="none" xmlns="http://www.w3.org/2000/svg">
<g clip-path="url(#clip0_9780_82579)">
<path d="M20.8297 10.9477C20.5459 10.6569 20.1512 10.5046 19.7451 10.5254L14.8482 10.7977L17.5436 7.72844C17.9266 7.29229 18.0374 6.70844 17.8897 6.1869C17.8112 5.82921 17.5943 5.50614 17.2643 5.29844C17.2551 5.29152 10.8236 1.55537 10.8236 1.55537C10.2974 1.25075 9.6374 1.31767 9.18279 1.72152L6.04202 4.52306C5.46279 5.03998 5.41202 5.92614 5.92894 6.50537C6.44587 7.0846 7.33202 7.13537 7.91125 6.61844L10.2928 4.49306L12.2612 5.63537L8.78587 9.59306C7.34587 9.82844 6.04894 10.4931 5.03125 11.4484L6.8451 13.2623C7.66433 12.5169 8.75587 12.06 9.94894 12.06C12.4943 12.06 14.5666 14.1323 14.5666 16.6777C14.5666 17.8708 14.112 18.96 13.3643 19.7815L15.1782 21.5954C16.3874 20.31 17.1282 18.5815 17.1282 16.6777C17.1282 15.5446 16.8651 14.4715 16.3966 13.5161L18.2912 13.41L17.8297 19.0661C17.7674 19.8392 18.342 20.5177 19.1151 20.58C19.1543 20.5823 19.1936 20.5846 19.2305 20.5846C19.9551 20.5846 20.5689 20.0284 20.6289 19.2946L21.2197 12.0346C21.252 11.6308 21.1089 11.2315 20.8251 10.9408L20.8297 10.9477Z" fill="#126060"/>
<path d="M18.2344 4.93148C19.5336 4.93148 20.5859 3.87917 20.5859 2.57994C20.5859 1.28071 19.5336 0.230713 18.2344 0.230713C16.9351 0.230713 15.8828 1.28302 15.8828 2.58225C15.8828 3.88148 16.9351 4.93379 18.2344 4.93379V4.93148Z" fill="#126060"/>
<path d="M9.94947 21.3023C7.40409 21.3023 5.33178 19.23 5.33178 16.6846C5.33178 15.7246 5.62716 14.8338 6.12793 14.093L4.29332 12.2584C3.33793 13.4792 2.76562 15.0138 2.76562 16.6823C2.76562 20.6492 5.98024 23.8638 9.94716 23.8638C11.6179 23.8638 13.1525 23.2915 14.371 22.3361L12.5364 20.5015C11.7979 21.0046 10.9049 21.2977 9.94486 21.2977L9.94947 21.3023Z" fill="#00EAD9"/>
</g>
<defs>
<clipPath id="clip0_9780_82579">
<rect width="18.4592" height="23.6331" fill="white" transform="translate(2.76562 0.230713)"/>
</clipPath>
</defs>
</svg>
